<svg width="36" height="36" viewBox="0 0 36 36" fill="none" xmlns="http://www.w3.org/2000/svg">
<circle cx="17.8306" cy="17.8307" r="16" transform="rotate(-173 17.8306 17.8307)" fill="#664EFF"/>
<path d="M15.7366 18.3359C15.9808 17.8014 16.631 17.5916 17.1415 17.8826L24.8135 22.2557C25.5688 22.6862 25.4528 23.8091 24.6254 24.0761L13.2848 27.7358C12.4573 28.0028 11.7068 27.1595 12.068 26.3687L15.7366 18.3359Z" fill="white"/>
<path d="M20.4888 16.5394C20.2677 17.0839 19.627 17.3212 19.1046 17.0522L11.2531 13.0103C10.4801 12.6123 10.5481 11.4855 11.3634 11.1835L22.5376 7.04358C23.3529 6.74153 24.1387 7.55201 23.8116 8.35756L20.4888 16.5394Z" fill="white"/>
</svg>
